<svg width="1911" height="560" viewBox="0 0 1911 560" fill="none" xmlns="http://www.w3.org/2000/svg">
<path d="M1303.25 610.96C1338.75 610.96 1367.52 582.44 1367.52 547.26C1367.52 512.079 1338.75 483.56 1303.25 483.56C1267.76 483.56 1238.99 512.079 1238.99 547.26C1238.99 582.44 1267.76 610.96 1303.25 610.96Z" fill="#1EABC0"/>
<path d="M1349.31 175.677C1356.41 175.677 1362.16 169.973 1362.16 162.937C1362.16 155.901 1356.41 150.197 1349.31 150.197C1342.21 150.197 1336.46 155.901 1336.46 162.937C1336.46 169.973 1342.21 175.677 1349.31 175.677Z" fill="#1EABC0"/>
<path d="M1637.44 135.333C1667.02 135.333 1691 111.567 1691 82.25C1691 52.9328 1667.02 29.1666 1637.44 29.1666C1607.86 29.1666 1583.88 52.9328 1583.88 82.25C1583.88 111.567 1607.86 135.333 1637.44 135.333Z" fill="#1EABC0"/>
<path d="M1820.6 562.123C1846.04 562.123 1866.66 541.684 1866.66 516.472C1866.66 491.259 1846.04 470.82 1820.6 470.82C1795.16 470.82 1774.54 491.259 1774.54 516.472C1774.54 541.684 1795.16 562.123 1820.6 562.123Z" fill="#1EABC0"/>
<path d="M1759.55 69.51C1786.17 69.51 1807.75 48.1204 1807.75 21.735C1807.75 -4.65044 1786.17 -26.04 1759.55 -26.04C1732.93 -26.04 1711.35 -4.65044 1711.35 21.735C1711.35 48.1204 1732.93 69.51 1759.55 69.51Z" fill="#1EABC0"/>
<path d="M1868.8 372.085C1891.87 372.085 1910.57 353.547 1910.57 330.68C1910.57 307.813 1891.87 289.275 1868.8 289.275C1845.73 289.275 1827.03 307.813 1827.03 330.68C1827.03 353.547 1845.73 372.085 1868.8 372.085Z" fill="#1EABC0"/>
<path d="M1160.8 395.442C1194.51 395.442 1221.85 368.348 1221.85 334.927C1221.85 301.505 1194.51 274.412 1160.8 274.412C1127.08 274.412 1099.74 301.505 1099.74 334.927C1099.74 368.348 1127.08 395.442 1160.8 395.442Z" fill="#1EABC0"/>
<path d="M1319.32 441.093C1339.43 441.093 1355.74 424.932 1355.74 404.997C1355.74 385.061 1339.43 368.9 1319.32 368.9C1299.21 368.9 1282.9 385.061 1282.9 404.997C1282.9 424.932 1299.21 441.093 1319.32 441.093Z" fill="#1EABC0"/>
<path d="M1181.15 187.355C1210.13 187.355 1233.63 164.064 1233.63 135.333C1233.63 106.603 1210.13 83.3116 1181.15 83.3116C1152.16 83.3116 1128.66 106.603 1128.66 135.333C1128.66 164.064 1152.16 187.355 1181.15 187.355Z" fill="#1EABC0"/>
<path d="M1154.37 6.8716C1161.47 6.8716 1167.22 1.16771 1167.22 -5.8684C1167.22 -12.9045 1161.47 -18.6084 1154.37 -18.6084C1147.27 -18.6084 1141.52 -12.9045 1141.52 -5.8684C1141.52 1.16771 1147.27 6.8716 1154.37 6.8716Z" fill="#1EABC0"/>
<path d="M1587.1 390.133C1596.56 390.133 1604.24 382.528 1604.24 373.147C1604.24 363.765 1596.56 356.16 1587.1 356.16C1577.63 356.16 1569.96 363.765 1569.96 373.147C1569.96 382.528 1577.63 390.133 1587.1 390.133Z" fill="#1EABC0"/>
<path d="M1715.63 214.958C1722.14 214.958 1727.41 209.73 1727.41 203.28C1727.41 196.83 1722.14 191.602 1715.63 191.602C1709.12 191.602 1703.85 196.83 1703.85 203.28C1703.85 209.73 1709.12 214.958 1715.63 214.958Z" fill="#1EABC0"/>
<path d="M1309.68 52.5233C1324.47 52.5233 1336.46 40.6402 1336.46 25.9816C1336.46 11.3231 1324.47 -0.560059 1309.68 -0.560059C1294.89 -0.560059 1282.9 11.3231 1282.9 25.9816C1282.9 40.6402 1294.89 52.5233 1309.68 52.5233Z" fill="#1EABC0"/>
<path d="M1000.13 438.97C1023.2 438.97 1041.9 420.432 1041.9 397.565C1041.9 374.698 1023.2 356.16 1000.13 356.16C977.058 356.16 958.356 374.698 958.356 397.565C958.356 420.432 977.058 438.97 1000.13 438.97Z" fill="#1EABC0"/>
<path d="M1089.03 262.733C1107.37 262.733 1122.24 247.998 1122.24 229.822C1122.24 211.645 1107.37 196.91 1089.03 196.91C1070.69 196.91 1055.83 211.645 1055.83 229.822C1055.83 247.998 1070.69 262.733 1089.03 262.733Z" fill="#1EABC0"/>
<path d="M1547.47 570.617C1575.27 570.617 1597.81 548.276 1597.81 520.718C1597.81 493.16 1575.27 470.82 1547.47 470.82C1519.66 470.82 1497.12 493.16 1497.12 520.718C1497.12 548.276 1519.66 570.617 1547.47 570.617Z" fill="#1EABC0"/>
<path d="M1080.46 527.088C1093.48 527.088 1104.03 516.631 1104.03 503.732C1104.03 490.832 1093.48 480.375 1080.46 480.375C1067.45 480.375 1056.9 490.832 1056.9 503.732C1056.9 516.631 1067.45 527.088 1080.46 527.088Z" fill="#1EABC0"/>
<path d="M988.347 158.69C1006.09 158.69 1020.48 144.43 1020.48 126.84C1020.48 109.25 1006.09 94.99 988.347 94.99C970.6 94.99 956.213 109.25 956.213 126.84C956.213 144.43 970.6 158.69 988.347 158.69Z" fill="#1EABC0"/>
<path d="M1424.29 513.287C1443.81 513.287 1459.64 497.601 1459.64 478.252C1459.64 458.902 1443.81 443.217 1424.29 443.217C1404.77 443.217 1388.94 458.902 1388.94 478.252C1388.94 497.601 1404.77 513.287 1424.29 513.287Z" fill="#1EABC0"/>
<path d="M1501.41 195.848C1534.54 195.848 1561.39 169.23 1561.39 136.395C1561.39 103.56 1534.54 76.9417 1501.41 76.9417C1468.28 76.9417 1441.43 103.56 1441.43 136.395C1441.43 169.23 1468.28 195.848 1501.41 195.848Z" fill="#1EABC0"/>
<path d="M1732.77 381.64C1757.02 381.64 1776.68 362.152 1776.68 338.112C1776.68 314.072 1757.02 294.583 1732.77 294.583C1708.52 294.583 1688.85 314.072 1688.85 338.112C1688.85 362.152 1708.52 381.64 1732.77 381.64Z" fill="#1EABC0"/>
<path d="M1417.86 325.372C1446.85 325.372 1470.35 302.081 1470.35 273.35C1470.35 244.619 1446.85 221.328 1417.86 221.328C1388.88 221.328 1365.38 244.619 1365.38 273.35C1365.38 302.081 1388.88 325.372 1417.86 325.372Z" fill="#1EABC0"/>
<path d="M1848.45 256.363C1878.62 256.363 1903.08 232.122 1903.08 202.218C1903.08 172.315 1878.62 148.073 1848.45 148.073C1818.28 148.073 1793.82 172.315 1793.82 202.218C1793.82 232.122 1818.28 256.363 1848.45 256.363Z" fill="#1EABC0"/>
<path d="M1888.08 44.03C1898.14 44.03 1906.29 35.9495 1906.29 25.9817C1906.29 16.0139 1898.14 7.93335 1888.08 7.93335C1878.02 7.93335 1869.87 16.0139 1869.87 25.9817C1869.87 35.9495 1878.02 44.03 1888.08 44.03Z" fill="#1EABC0"/>
<path d="M1579.6 297.768C1608.59 297.768 1632.08 274.477 1632.08 245.747C1632.08 217.016 1608.59 193.725 1579.6 193.725C1550.61 193.725 1527.12 217.016 1527.12 245.747C1527.12 274.477 1550.61 297.768 1579.6 297.768Z" fill="#1EABC0"/>
<path d="M1692.07 591.85C1722.83 591.85 1747.76 567.133 1747.76 536.643C1747.76 506.154 1722.83 481.437 1692.07 481.437C1661.31 481.437 1636.37 506.154 1636.37 536.643C1636.37 567.133 1661.31 591.85 1692.07 591.85Z" fill="#1EABC0"/>
<path d="M1274.33 298.83C1290.31 298.83 1303.25 285.996 1303.25 270.165C1303.25 254.334 1290.31 241.5 1274.33 241.5C1258.36 241.5 1245.41 254.334 1245.41 270.165C1245.41 285.996 1258.36 298.83 1274.33 298.83Z" fill="#1EABC0"/>
<path d="M344.347 610.96C379.546 610.96 408.08 582.44 408.08 547.26C408.08 512.079 379.546 483.56 344.347 483.56C309.148 483.56 280.613 512.079 280.613 547.26C280.613 582.44 309.148 610.96 344.347 610.96Z" fill="#1EABC0"/>
<path d="M390.022 175.677C397.062 175.677 402.769 169.973 402.769 162.937C402.769 155.901 397.062 150.197 390.022 150.197C382.982 150.197 377.276 155.901 377.276 162.937C377.276 169.973 382.982 175.677 390.022 175.677Z" fill="#1EABC0"/>
<path d="M675.76 135.333C705.092 135.333 728.871 111.567 728.871 82.25C728.871 52.9328 705.092 29.1666 675.76 29.1666C646.428 29.1666 622.649 52.9328 622.649 82.25C622.649 111.567 646.428 135.333 675.76 135.333Z" fill="#1EABC0"/>
<path d="M857.4 562.123C882.626 562.123 903.076 541.684 903.076 516.472C903.076 491.259 882.626 470.82 857.4 470.82C832.174 470.82 811.724 491.259 811.724 516.472C811.724 541.684 832.174 562.123 857.4 562.123Z" fill="#1EABC0"/>
<path d="M796.853 69.51C823.252 69.51 844.653 48.1204 844.653 21.735C844.653 -4.65044 823.252 -26.04 796.853 -26.04C770.454 -26.04 749.053 -4.65044 749.053 21.735C749.053 48.1204 770.454 69.51 796.853 69.51Z" fill="#1EABC0"/>
<path d="M905.2 372.085C928.079 372.085 946.627 353.547 946.627 330.68C946.627 307.813 928.079 289.275 905.2 289.275C882.321 289.275 863.773 307.813 863.773 330.68C863.773 353.547 882.321 372.085 905.2 372.085Z" fill="#1EABC0"/>
<path d="M203.071 395.442C236.51 395.442 263.618 368.348 263.618 334.927C263.618 301.505 236.51 274.412 203.071 274.412C169.632 274.412 142.524 301.505 142.524 334.927C142.524 368.348 169.632 395.442 203.071 395.442Z" fill="#1EABC0"/>
<path d="M360.28 441.093C380.226 441.093 396.396 424.932 396.396 404.997C396.396 385.061 380.226 368.9 360.28 368.9C340.334 368.9 324.164 385.061 324.164 404.997C324.164 424.932 340.334 441.093 360.28 441.093Z" fill="#1EABC0"/>
<path d="M223.253 187.355C251.999 187.355 275.302 164.064 275.302 135.333C275.302 106.603 251.999 83.3116 223.253 83.3116C194.508 83.3116 171.204 106.603 171.204 135.333C171.204 164.064 194.508 187.355 223.253 187.355Z" fill="#1EABC0"/>
<path d="M196.698 6.8716C203.738 6.8716 209.444 1.16771 209.444 -5.8684C209.444 -12.9045 203.738 -18.6084 196.698 -18.6084C189.658 -18.6084 183.951 -12.9045 183.951 -5.8684C183.951 1.16771 189.658 6.8716 196.698 6.8716Z" fill="#1EABC0"/>
<path d="M625.836 390.133C635.222 390.133 642.831 382.528 642.831 373.147C642.831 363.765 635.222 356.16 625.836 356.16C616.449 356.16 608.84 363.765 608.84 373.147C608.84 382.528 616.449 390.133 625.836 390.133Z" fill="#1EABC0"/>
<path d="M753.302 214.958C759.755 214.958 764.987 209.73 764.987 203.28C764.987 196.83 759.755 191.602 753.302 191.602C746.849 191.602 741.618 196.83 741.618 203.28C741.618 209.73 746.849 214.958 753.302 214.958Z" fill="#1EABC0"/>
<path d="M350.72 52.5233C365.386 52.5233 377.276 40.6402 377.276 25.9816C377.276 11.3231 365.386 -0.560059 350.72 -0.560059C336.054 -0.560059 324.164 11.3231 324.164 25.9816C324.164 40.6402 336.054 52.5233 350.72 52.5233Z" fill="#1EABC0"/>
<path d="M43.7377 438.97C66.617 438.97 85.1644 420.432 85.1644 397.565C85.1644 374.698 66.617 356.16 43.7377 356.16C20.8584 356.16 2.31104 374.698 2.31104 397.565C2.31104 420.432 20.8584 438.97 43.7377 438.97Z" fill="#1EABC0"/>
<path d="M131.902 262.733C150.088 262.733 164.831 247.998 164.831 229.822C164.831 211.645 150.088 196.91 131.902 196.91C113.716 196.91 98.9733 211.645 98.9733 229.822C98.9733 247.998 113.716 262.733 131.902 262.733Z" fill="#1EABC0"/>
<path d="M586.533 570.617C614.106 570.617 636.458 548.276 636.458 520.718C636.458 493.16 614.106 470.82 586.533 470.82C558.961 470.82 536.609 493.16 536.609 520.718C536.609 548.276 558.961 570.617 586.533 570.617Z" fill="#1EABC0"/>
<path d="M123.404 527.088C136.311 527.088 146.773 516.631 146.773 503.732C146.773 490.832 136.311 480.375 123.404 480.375C110.498 480.375 100.036 490.832 100.036 503.732C100.036 516.631 110.498 527.088 123.404 527.088Z" fill="#1EABC0"/>
<path d="M32.0533 158.69C49.6528 158.69 63.92 144.43 63.92 126.84C63.92 109.25 49.6528 94.99 32.0533 94.99C14.4538 94.99 0.186646 109.25 0.186646 126.84C0.186646 144.43 14.4538 158.69 32.0533 158.69Z" fill="#1EABC0"/>
<path d="M464.378 513.287C483.737 513.287 499.431 497.601 499.431 478.252C499.431 458.902 483.737 443.217 464.378 443.217C445.018 443.217 429.324 458.902 429.324 478.252C429.324 497.601 445.018 513.287 464.378 513.287Z" fill="#1EABC0"/>
<path d="M540.858 195.848C573.71 195.848 600.342 169.23 600.342 136.395C600.342 103.56 573.71 76.9417 540.858 76.9417C508.005 76.9417 481.373 103.56 481.373 136.395C481.373 169.23 508.005 195.848 540.858 195.848Z" fill="#1EABC0"/>
<path d="M770.298 381.64C794.35 381.64 813.849 362.152 813.849 338.112C813.849 314.072 794.35 294.583 770.298 294.583C746.245 294.583 726.747 314.072 726.747 338.112C726.747 362.152 746.245 381.64 770.298 381.64Z" fill="#1EABC0"/>
<path d="M458.004 325.372C486.75 325.372 510.053 302.081 510.053 273.35C510.053 244.619 486.75 221.328 458.004 221.328C429.259 221.328 405.956 244.619 405.956 273.35C405.956 302.081 429.259 325.372 458.004 325.372Z" fill="#1EABC0"/>
<path d="M885.018 256.363C914.937 256.363 939.191 232.122 939.191 202.218C939.191 172.315 914.937 148.073 885.018 148.073C855.099 148.073 830.844 172.315 830.844 202.218C830.844 232.122 855.099 256.363 885.018 256.363Z" fill="#1EABC0"/>
<path d="M924.32 44.03C934.293 44.03 942.378 35.9495 942.378 25.9817C942.378 16.0139 934.293 7.93335 924.32 7.93335C914.347 7.93335 906.262 16.0139 906.262 25.9817C906.262 35.9495 914.347 44.03 924.32 44.03Z" fill="#1EABC0"/>
<path d="M618.4 297.768C647.146 297.768 670.449 274.477 670.449 245.747C670.449 217.016 647.146 193.725 618.4 193.725C589.654 193.725 566.351 217.016 566.351 245.747C566.351 274.477 589.654 297.768 618.4 297.768Z" fill="#1EABC0"/>
<path d="M729.933 591.85C760.439 591.85 785.169 567.133 785.169 536.643C785.169 506.154 760.439 481.437 729.933 481.437C699.428 481.437 674.698 506.154 674.698 536.643C674.698 567.133 699.428 591.85 729.933 591.85Z" fill="#1EABC0"/>
<path d="M315.667 298.83C331.506 298.83 344.347 285.996 344.347 270.165C344.347 254.334 331.506 241.5 315.667 241.5C299.827 241.5 286.987 254.334 286.987 270.165C286.987 285.996 299.827 298.83 315.667 298.83Z" fill="#1EABC0"/>
</svg>
