<svg  viewBox="0 0 1918 359" fill="none" xmlns="http://www.w3.org/2000/svg">
<path d="M-2 335.38L30 327.112C62 318.845 126 302.311 190 301.13C254 299.949 318 314.121 382 324.75C446 335.38 510 342.466 574 348.371C638 354.276 702 359 766 359C830 359 894 354.276 958 353.095C1022 351.914 1086 354.276 1150 346.009C1214 337.742 1278 318.845 1342 308.216C1406 297.587 1470 295.225 1534 298.768C1598 302.311 1662 311.759 1726 311.759C1790 311.759 1854 302.311 1886 297.587L1918 292.863V63.7448L1886 54.2967C1854 44.8485 1790 25.9522 1726 14.142C1662 2.33176 1598 -2.39232 1534 1.15074C1470 4.6938 1406 16.504 1342 17.685C1278 18.866 1214 9.41788 1150 12.9609C1086 16.504 1022 33.0383 958 33.0383C894 33.0383 830 16.504 766 20.0471C702 23.5901 638 47.2105 574 51.9346C510 56.6587 446 42.4865 382 44.8485C318 47.2105 254 66.1069 190 66.1069C126 66.1069 62 47.2105 30 37.7624L-2 28.3142V335.38Z" fill="#19A0B5"/>
</svg>
