<svg width="390" height="199" viewBox="0 0 390 199" fill="none" xmlns="http://www.w3.org/2000/svg">
<g clip-path="url(#clip0_106_134)">
<path d="M357 136C362.523 136 367 131.523 367 126C367 120.477 362.523 116 357 116C351.477 116 347 120.477 347 126C347 131.523 351.477 136 357 136Z" fill="white"/>
<path d="M373.5 159C382.613 159 390 151.613 390 142.5C390 133.387 382.613 126 373.5 126C364.387 126 357 133.387 357 142.5C357 151.613 364.387 159 373.5 159Z" fill="white"/>
<path d="M216.267 198.533C227.46 198.533 236.533 189.46 236.533 178.267C236.533 167.074 227.46 158 216.267 158C205.074 158 196 167.074 196 178.267C196 189.46 205.074 198.533 216.267 198.533Z" fill="white"/>
<path d="M186 185C237.362 185 279 143.586 279 92.5C279 41.4137 237.362 0 186 0C134.638 0 93 41.4137 93 92.5C93 143.586 134.638 185 186 185Z" fill="white"/>
<path d="M82 125C107.957 125 129 103.957 129 78C129 52.0426 107.957 31 82 31C56.0426 31 35 52.0426 35 78C35 103.957 56.0426 125 82 125Z" fill="white"/>
<path d="M353.933 87.8667C371.017 87.8667 384.867 74.0173 384.867 56.9333C384.867 39.8493 371.017 26 353.933 26C336.849 26 323 39.8493 323 56.9333C323 74.0173 336.849 87.8667 353.933 87.8667Z" fill="white"/>
<path d="M265 160C291.51 160 313 138.51 313 112C313 85.4903 291.51 64 265 64C238.49 64 217 85.4903 217 112C217 138.51 238.49 160 265 160Z" fill="white"/>
<path d="M35.2 88.4C54.6404 88.4 70.4 72.6404 70.4 53.2C70.4 33.7596 54.6404 18 35.2 18C15.7596 18 0 33.7596 0 53.2C0 72.6404 15.7596 88.4 35.2 88.4Z" fill="white"/>
<path d="M289.933 111.867C315.854 111.867 336.867 90.8539 336.867 64.9333C336.867 39.0128 315.854 18 289.933 18C264.013 18 243 39.0128 243 64.9333C243 90.8539 264.013 111.867 289.933 111.867Z" fill="white"/>
<path d="M128.667 179.333C152.231 179.333 171.333 160.231 171.333 136.667C171.333 113.103 152.231 94 128.667 94C105.103 94 86 113.103 86 136.667C86 160.231 105.103 179.333 128.667 179.333Z" fill="white"/>
<path d="M45 168C50.5228 168 55 163.523 55 158C55 152.477 50.5228 148 45 148C39.4772 148 35 152.477 35 158C35 163.523 39.4772 168 45 168Z" fill="white"/>
<path d="M22 129C25.866 129 29 125.866 29 122C29 118.134 25.866 115 22 115C18.134 115 15 118.134 15 122C15 125.866 18.134 129 22 129Z" fill="white"/>
</g>
<defs>
<clipPath id="clip0_106_134">
<rect width="390" height="199" fill="white"/>
</clipPath>
</defs>
</svg>
