<svg width="1920" height="418" viewBox="0 0 1920 418" fill="none" xmlns="http://www.w3.org/2000/svg">
<path d="M1460.5 589C1560.74 589 1642 507.74 1642 407.5C1642 307.26 1560.74 226 1460.5 226C1360.26 226 1279 307.26 1279 407.5C1279 507.74 1360.26 589 1460.5 589Z" fill="white"/>
<path d="M1225 445C1266.97 445 1301 410.974 1301 369C1301 327.026 1266.97 293 1225 293C1183.03 293 1149 327.026 1149 369C1149 410.974 1183.03 445 1225 445Z" fill="white"/>
<path d="M128.933 249.867C146.017 249.867 159.867 236.017 159.867 218.933C159.867 201.849 146.017 188 128.933 188C111.849 188 98 201.849 98 218.933C98 236.017 111.849 249.867 128.933 249.867Z" fill="white"/>
<path d="M1573.5 216C1583.16 216 1591 208.165 1591 198.5C1591 188.835 1583.16 181 1573.5 181C1563.84 181 1556 188.835 1556 198.5C1556 208.165 1563.84 216 1573.5 216Z" fill="white"/>
<path d="M1104 384C1130.51 384 1152 362.51 1152 336C1152 309.49 1130.51 288 1104 288C1077.49 288 1056 309.49 1056 336C1056 362.51 1077.49 384 1104 384Z" fill="white"/>
<path d="M789 360C812.748 360 832 340.748 832 317C832 293.252 812.748 274 789 274C765.252 274 746 293.252 746 317C746 340.748 765.252 360 789 360Z" fill="white"/>
<path d="M173.2 180.4C192.64 180.4 208.4 164.64 208.4 145.2C208.4 125.76 192.64 110 173.2 110C153.76 110 138 125.76 138 145.2C138 164.64 153.76 180.4 173.2 180.4Z" fill="white"/>
<path d="M650.933 423.867C676.854 423.867 697.867 402.854 697.867 376.933C697.867 351.013 676.854 330 650.933 330C625.013 330 604 351.013 604 376.933C604 402.854 625.013 423.867 650.933 423.867Z" fill="white"/>
<path d="M58.6667 238.333C82.2308 238.333 101.333 219.231 101.333 195.667C101.333 172.103 82.2308 153 58.6667 153C35.1025 153 16 172.103 16 195.667C16 219.231 35.1025 238.333 58.6667 238.333Z" fill="white"/>
<path d="M334.733 276.467C350.05 276.467 362.467 264.05 362.467 248.733C362.467 233.417 350.05 221 334.733 221C319.417 221 307 233.417 307 248.733C307 264.05 319.417 276.467 334.733 276.467Z" fill="white"/>
<path d="M1166 262C1175.39 262 1183 254.165 1183 244.5C1183 234.835 1175.39 227 1166 227C1156.61 227 1149 234.835 1149 244.5C1149 254.165 1156.61 262 1166 262Z" fill="white"/>
<path d="M1215 308C1224.39 308 1232 300.165 1232 290.5C1232 280.835 1224.39 273 1215 273C1205.61 273 1198 280.835 1198 290.5C1198 300.165 1205.61 308 1215 308Z" fill="white"/>
<path d="M1156 346C1165.39 346 1173 338.165 1173 328.5C1173 318.835 1165.39 311 1156 311C1146.61 311 1139 318.835 1139 328.5C1139 338.165 1146.61 346 1156 346Z" fill="white"/>
<path d="M489.133 276.267C499.148 276.267 507.267 268.148 507.267 258.133C507.267 248.119 499.148 240 489.133 240C479.119 240 471 248.119 471 258.133C471 268.148 479.119 276.267 489.133 276.267Z" fill="white"/>
<path d="M25 404.733C68.5937 404.733 103.933 369.394 103.933 325.8C103.933 282.206 68.5937 246.867 25 246.867C-18.5937 246.867 -53.9333 282.206 -53.9333 325.8C-53.9333 369.394 -18.5937 404.733 25 404.733Z" fill="white"/>
<path d="M432.467 562.6C513.763 562.6 579.667 496.696 579.667 415.4C579.667 334.104 513.763 268.2 432.467 268.2C351.17 268.2 285.267 334.104 285.267 415.4C285.267 496.696 351.17 562.6 432.467 562.6Z" fill="white"/>
<path d="M965.8 524.2C1031.78 524.2 1085.27 470.713 1085.27 404.733C1085.27 338.754 1031.78 285.267 965.8 285.267C899.82 285.267 846.333 338.754 846.333 404.733C846.333 470.713 899.82 524.2 965.8 524.2Z" fill="white"/>
<path d="M1756.8 383.6C1816.89 383.6 1865.6 334.889 1865.6 274.8C1865.6 214.711 1816.89 166 1756.8 166C1696.71 166 1648 214.711 1648 274.8C1648 334.889 1696.71 383.6 1756.8 383.6Z" fill="white"/>
<path d="M1590.87 436.733C1635.64 436.733 1671.93 400.439 1671.93 355.667C1671.93 310.895 1635.64 274.6 1590.87 274.6C1546.09 274.6 1509.8 310.895 1509.8 355.667C1509.8 400.439 1546.09 436.733 1590.87 436.733Z" fill="white"/>
<path d="M1299.73 363.467C1323.89 363.467 1343.47 343.887 1343.47 319.733C1343.47 295.58 1323.89 276 1299.73 276C1275.58 276 1256 295.58 1256 319.733C1256 343.887 1275.58 363.467 1299.73 363.467Z" fill="white"/>
<path d="M1113 603.133C1187.23 603.133 1247.4 542.96 1247.4 468.733C1247.4 394.506 1187.23 334.333 1113 334.333C1038.77 334.333 978.6 394.506 978.6 468.733C978.6 542.96 1038.77 603.133 1113 603.133Z" fill="white"/>
<path d="M568.067 231.133C577.492 231.133 585.133 223.492 585.133 214.067C585.133 204.641 577.492 197 568.067 197C558.641 197 551 204.641 551 214.067C551 223.492 558.641 231.133 568.067 231.133Z" fill="white"/>
<path d="M584.533 384.067C598.083 384.067 609.067 373.083 609.067 359.533C609.067 345.984 598.083 335 584.533 335C570.984 335 560 345.984 560 359.533C560 373.083 570.984 384.067 584.533 384.067Z" fill="white"/>
<path d="M1671.6 341.2C1703.41 341.2 1729.2 315.412 1729.2 283.6C1729.2 251.788 1703.41 226 1671.6 226C1639.79 226 1614 251.788 1614 283.6C1614 315.412 1639.79 341.2 1671.6 341.2Z" fill="white"/>
<path d="M1793.53 564.733C1883.08 564.733 1955.67 492.144 1955.67 402.6C1955.67 313.056 1883.08 240.467 1793.53 240.467C1703.99 240.467 1631.4 313.056 1631.4 402.6C1631.4 492.144 1703.99 564.733 1793.53 564.733Z" fill="white"/>
<path d="M-4.86662 534.867C90.5682 534.867 167.933 453.681 167.933 353.533C167.933 253.386 90.5682 172.2 -4.86662 172.2C-100.301 172.2 -177.667 253.386 -177.667 353.533C-177.667 453.681 -100.301 534.867 -4.86662 534.867Z" fill="white"/>
<path d="M1387.8 301.6C1412.54 301.6 1432.6 281.542 1432.6 256.8C1432.6 232.058 1412.54 212 1387.8 212C1363.06 212 1343 232.058 1343 256.8C1343 281.542 1363.06 301.6 1387.8 301.6Z" fill="white"/>
<path d="M539.533 374.067C561.919 374.067 580.067 355.919 580.067 333.533C580.067 311.147 561.919 293 539.533 293C517.147 293 499 311.147 499 333.533C499 355.919 517.147 374.067 539.533 374.067Z" fill="white"/>
<path d="M179.667 377C225.028 377 261.8 340.228 261.8 294.867C261.8 249.506 225.028 212.733 179.667 212.733C134.306 212.733 97.5334 249.506 97.5334 294.867C97.5334 340.228 134.306 377 179.667 377Z" fill="white"/>
<path d="M788.733 564.733C858.248 564.733 914.6 508.381 914.6 438.867C914.6 369.352 858.248 313 788.733 313C719.219 313 662.867 369.352 662.867 438.867C662.867 508.381 719.219 564.733 788.733 564.733Z" fill="white"/>
<path d="M625.267 304.533C636.46 304.533 645.533 295.46 645.533 284.267C645.533 273.074 636.46 264 625.267 264C614.074 264 605 273.074 605 284.267C605 295.46 614.074 304.533 625.267 304.533Z" fill="white"/>
<path d="M45.2667 40.5333C56.4596 40.5333 65.5333 31.4596 65.5333 20.2667C65.5333 9.0737 56.4596 0 45.2667 0C34.0737 0 25 9.0737 25 20.2667C25 31.4596 34.0737 40.5333 45.2667 40.5333Z" fill="white"/>
<path d="M1866.4 112.8C1878.77 112.8 1888.8 102.771 1888.8 90.4C1888.8 78.0288 1878.77 68 1866.4 68C1854.03 68 1844 78.0288 1844 90.4C1844 102.771 1854.03 112.8 1866.4 112.8Z" fill="white"/>
<path d="M605.267 635.133C678.316 635.133 737.533 575.916 737.533 502.867C737.533 429.818 678.316 370.6 605.267 370.6C532.218 370.6 473 429.818 473 502.867C473 575.916 532.218 635.133 605.267 635.133Z" fill="white"/>
<path d="M212.733 562.6C282.248 562.6 338.6 506.248 338.6 436.733C338.6 367.219 282.248 310.867 212.733 310.867C143.219 310.867 86.8667 367.219 86.8667 436.733C86.8667 506.248 143.219 562.6 212.733 562.6Z" fill="white"/>
<path d="M731.667 259.333C737.558 259.333 742.333 254.558 742.333 248.667C742.333 242.776 737.558 238 731.667 238C725.776 238 721 242.776 721 248.667C721 254.558 725.776 259.333 731.667 259.333Z" fill="white"/>
<path d="M640.667 276.333C646.558 276.333 651.333 271.558 651.333 265.667C651.333 259.776 646.558 255 640.667 255C634.776 255 630 259.776 630 265.667C630 271.558 634.776 276.333 640.667 276.333Z" fill="white"/>
<path d="M128.2 66.2C134.091 66.2 138.867 61.4244 138.867 55.5334C138.867 49.6423 134.091 44.8667 128.2 44.8667C122.309 44.8667 117.533 49.6423 117.533 55.5334C117.533 61.4244 122.309 66.2 128.2 66.2Z" fill="white"/>
<path d="M865.667 312.333C871.558 312.333 876.333 307.558 876.333 301.667C876.333 295.776 871.558 291 865.667 291C859.776 291 855 295.776 855 301.667C855 307.558 859.776 312.333 865.667 312.333Z" fill="white"/>
<path d="M476.667 177.333C482.558 177.333 487.333 172.558 487.333 166.667C487.333 160.776 482.558 156 476.667 156C470.776 156 466 160.776 466 166.667C466 172.558 470.776 177.333 476.667 177.333Z" fill="white"/>
<path d="M1278.67 261.333C1284.56 261.333 1289.33 256.558 1289.33 250.667C1289.33 244.776 1284.56 240 1278.67 240C1272.78 240 1268 244.776 1268 250.667C1268 256.558 1272.78 261.333 1278.67 261.333Z" fill="white"/>
<path d="M1659.33 164.133C1665.22 164.133 1670 159.358 1670 153.467C1670 147.576 1665.22 142.8 1659.33 142.8C1653.44 142.8 1648.67 147.576 1648.67 153.467C1648.67 159.358 1653.44 164.133 1659.33 164.133Z" fill="white"/>
<path d="M48.6667 91.3333C54.5577 91.3333 59.3333 86.5577 59.3333 80.6667C59.3333 74.7756 54.5577 70 48.6667 70C42.7756 70 38 74.7756 38 80.6667C38 86.5577 42.7756 91.3333 48.6667 91.3333Z" fill="white"/>
<path d="M1725.47 181.2C1741.96 181.2 1755.33 167.828 1755.33 151.333C1755.33 134.838 1741.96 121.467 1725.47 121.467C1708.97 121.467 1695.6 134.838 1695.6 151.333C1695.6 167.828 1708.97 181.2 1725.47 181.2Z" fill="white"/>
<path d="M296.533 350.067C310.083 350.067 321.067 339.083 321.067 325.533C321.067 311.984 310.083 301 296.533 301C282.984 301 272 311.984 272 325.533C272 339.083 282.984 350.067 296.533 350.067Z" fill="white"/>
<path d="M1033.5 288C1042.06 288 1049 281.284 1049 273C1049 264.716 1042.06 258 1033.5 258C1024.94 258 1018 264.716 1018 273C1018 281.284 1024.94 288 1033.5 288Z" fill="white"/>
<path d="M1453.13 221.267C1471.98 221.267 1487.27 205.985 1487.27 187.133C1487.27 168.282 1471.98 153 1453.13 153C1434.28 153 1419 168.282 1419 187.133C1419 205.985 1434.28 221.267 1453.13 221.267Z" fill="white"/>
<path d="M1920 387C1997.87 387 2061 323.872 2061 246C2061 168.128 1997.87 105 1920 105C1842.13 105 1779 168.128 1779 246C1779 323.872 1842.13 387 1920 387Z" fill="white"/>
</svg>
