<svg width="1920" height="85" viewBox="0 0 1920 85" fill="none" xmlns="http://www.w3.org/2000/svg">
<path d="M1888 72.2967L1920 81.7448V0H0V46.3142L32 55.7624C64 65.2105 128 84.1069 192 84.1069C256 84.1069 320 65.2105 384 62.8485C448 60.4865 512 74.6587 576 69.9346C640 65.2105 704 41.5901 768 38.0471C832 34.504 896 51.0383 960 51.0383C1024 51.0383 1088 34.504 1152 30.9609C1216 27.4179 1280 36.866 1344 35.685C1408 34.504 1472 22.6938 1536 19.1507C1600 15.6077 1664 20.3318 1728 32.142C1792 43.9522 1856 62.8485 1888 72.2967Z" fill="white"/>
</svg>
