<svg width="1920" height="81" viewBox="0 0 1920 81" fill="none" xmlns="http://www.w3.org/2000/svg">
<path d="M32 35.1124L0 43.3795V81H1920V0.862793L1888 5.58688C1856 10.311 1792 19.7591 1728 19.7591C1664 19.7591 1600 10.311 1536 6.76791C1472 3.22485 1408 5.58688 1344 16.2161C1280 26.8452 1216 45.7416 1152 54.0087C1088 62.2759 1024 59.9138 960 61.0948C896 62.2759 832 67 768 67C704 67 640 62.2759 576 56.3708C512 50.4657 448 43.3796 384 32.7504C320 22.1212 256 7.94892 192 9.12994C128 10.311 64 26.8453 32 35.1124Z" fill="white"/>
</svg>
