<svg width="570" height="49" viewBox="0 0 570 49" fill="none" xmlns="http://www.w3.org/2000/svg">
<g clip-path="url(#clip0_109_17)">
<path d="M569.007 34.7568C564.567 33.1746 560.935 30.8342 534.636 27.8477C525.639 26.8541 516.662 25.7783 507.661 24.8257C440.452 18.7872 434.604 19.0116 385.018 16.4604C358.457 15.3819 331.828 15.3025 305.232 15.0014C286.478 14.9713 267.72 15.4284 248.97 15.6858C148 18.7105 183.135 17.1037 112.784 21.3384C82.4715 24.1222 52.231 27.3222 21.9421 30.2456C17.4256 30.9053 12.8406 31.3871 8.38435 32.222C3.45352 33.1582 3.26851 33.1199 2.56468 33.5578C-0.648808 35.14 1.36616 39.0708 6.07176 38.3482C19.7422 35.7559 19.0544 36.0023 77.6855 30.2292C79.3988 31.4556 80.6174 31.1544 85.0938 31.0805C90.3987 30.9929 95.7035 30.9355 101.004 30.774C122.525 29.731 143.99 28.1406 165.499 26.9554C172.904 26.5995 180.3 26.1013 187.704 25.6688C197.039 25.3513 206.378 25.042 215.717 24.7381C264.092 24.1469 250.088 23.8813 310.09 24.322C319.509 24.593 310.722 24.2728 360.653 26.2108C399.509 28.6416 441.461 33.8589 479.468 38.8354C495.905 41.0006 526.391 45.186 542.334 48.9033C543.866 49.1908 545.664 48.8294 546.561 47.9234C547.836 46.9051 547.631 45.2682 546.247 44.3292C544.94 43.4752 542.974 43.3876 541.349 42.9387C534.154 41.3373 523.576 39.6292 515.741 38.4056L526.263 39.3035C535.521 40.1603 544.876 40.3765 554.15 41.1512C558.494 41.414 564.378 41.6467 567.961 39.9495C568.87 39.528 569.916 39.1967 570.459 38.5069C571.569 37.2505 570.914 35.4794 569.015 34.7623L569.007 34.7568ZM373.186 21.5081C388.324 21.8913 435.119 24.4781 452.272 25.5976C470.753 27.1059 489.229 28.6169 507.677 30.3031C517.431 31.6088 537.492 33.3717 548.588 35.2687C543.814 34.9539 539.028 34.7294 534.25 34.431C480.574 30.0787 426.946 25.3923 373.186 21.5081Z" fill="#F3BC34"/>
</g>
<defs>
<clipPath id="clip0_109_17">
<rect width="570" height="49" fill="white"/>
</clipPath>
</defs>
</svg>
